# This file uses centimeters as units for non-parametric coordinates.

mtllib Lamp obj.mtl
g default
v -2.674949 7.745249 -8.627791
v -2.674901 7.767322 -8.626295
v -2.674826 7.787851 -8.618051
v -2.674731 7.804829 -8.603867
v -2.674626 7.816592 -8.585129
v -2.674521 7.821989 -8.563675
v -2.674426 7.820492 -8.541602
v -2.674351 7.812248 -8.521071
v -2.674303 7.798062 -8.504094
v -2.674286 7.779325 -8.492332
v -2.674303 7.757871 -8.486935
v -2.674351 7.735798 -8.488431
v -2.674426 7.715268 -8.496675
v -2.674521 7.698291 -8.510859
v -2.674626 7.686528 -8.529596
v -2.674731 7.681130 -8.551051
v -2.674826 7.682628 -8.573124
v -2.674901 7.690872 -8.593655
v -2.674949 7.705057 -8.610632
v -2.674966 7.723794 -8.622395
v 2.674303 7.735157 -8.651429
v 2.674351 7.757229 -8.649933
v 2.674427 7.777759 -8.641688
v 2.674521 7.794736 -8.627504
v 2.674626 7.806499 -8.608767
v 2.674731 7.811897 -8.587313
v 2.674826 7.810400 -8.565240
v 2.674901 7.802155 -8.544709
v 2.674949 7.787971 -8.527732
v 2.674966 7.769233 -8.515969
v 2.674949 7.747778 -8.510572
v 2.674901 7.725706 -8.512069
v 2.674826 7.705176 -8.520313
v 2.674731 7.688199 -8.534497
v 2.674626 7.676435 -8.553234
v 2.674521 7.671038 -8.574689
v 2.674426 7.672535 -8.596762
v 2.674351 7.680779 -8.617292
v 2.674303 7.694964 -8.634270
v 2.674286 7.713702 -8.646032
v -2.674626 7.751560 -8.557363
v 2.674626 7.741467 -8.581001
vt 0.648603 0.107966
vt 0.626409 0.064408
vt 0.591842 0.029841
vt 0.548284 0.007647
vt 0.500000 -0.000000
vt 0.451716 0.007647
vt 0.408159 0.029841
vt 0.373591 0.064409
vt 0.351397 0.107966
vt 0.343750 0.156250
vt 0.351397 0.204534
vt 0.373591 0.248091
vt 0.408159 0.282659
vt 0.451716 0.304853
vt 0.500000 0.312500
vt 0.548284 0.304853
vt 0.591841 0.282659
vt 0.626409 0.248091
vt 0.648603 0.204534
vt 0.656250 0.156250
vt 0.375000 0.312500
vt 0.387500 0.312500
vt 0.400000 0.312500
vt 0.412500 0.312500
vt 0.425000 0.312500
vt 0.437500 0.312500
vt 0.450000 0.312500
vt 0.462500 0.312500
vt 0.475000 0.312500
vt 0.487500 0.312500
vt 0.500000 0.312500
vt 0.512500 0.312500
vt 0.525000 0.312500
vt 0.537500 0.312500
vt 0.550000 0.312500
vt 0.562500 0.312500
vt 0.575000 0.312500
vt 0.587500 0.312500
vt 0.600000 0.312500
vt 0.612500 0.312500
vt 0.625000 0.312500
vt 0.375000 0.688440
vt 0.387500 0.688440
vt 0.400000 0.688440
vt 0.412500 0.688440
vt 0.425000 0.688440
vt 0.437500 0.688440
vt 0.450000 0.688440
vt 0.462500 0.688440
vt 0.475000 0.688440
vt 0.487500 0.688440
vt 0.500000 0.688440
vt 0.512500 0.688440
vt 0.525000 0.688440
vt 0.537500 0.688440
vt 0.550000 0.688440
vt 0.562500 0.688440
vt 0.575000 0.688440
vt 0.587500 0.688440
vt 0.600000 0.688440
vt 0.612500 0.688440
vt 0.625000 0.688440
vt 0.648603 0.795466
vt 0.626409 0.751908
vt 0.591842 0.717341
vt 0.548284 0.695147
vt 0.500000 0.687500
vt 0.451716 0.695147
vt 0.408159 0.717341
vt 0.373591 0.751909
vt 0.351397 0.795466
vt 0.343750 0.843750
vt 0.351397 0.892034
vt 0.373591 0.935591
vt 0.408159 0.970159
vt 0.451716 0.992353
vt 0.500000 1.000000
vt 0.548284 0.992353
vt 0.591841 0.970159
vt 0.626409 0.935591
vt 0.648603 0.892034
vt 0.656250 0.843750
vt 0.500000 0.150000
vt 0.500000 0.837500
vn -0.004570 -0.089248 -0.995999
vn -0.003887 0.222899 -0.974834
vn -0.003887 0.222899 -0.974834
vn -0.004570 -0.089248 -0.995999
vn -0.002824 0.513227 -0.858249
vn -0.002824 0.513227 -0.858248
vn -0.001485 0.753335 -0.657636
vn -0.001485 0.753334 -0.657636
vn -0.000000 0.919680 -0.392668
vn -0.000000 0.919680 -0.392669
vn 0.001485 0.996007 -0.089259
vn 0.001485 0.996007 -0.089259
vn 0.002824 0.974842 0.222878
vn 0.002824 0.974842 0.222878
vn 0.003887 0.858244 0.513228
vn 0.003887 0.858244 0.513228
vn 0.004570 0.657641 0.753318
vn 0.004570 0.657641 0.753318
vn 0.004805 0.392652 0.919675
vn 0.004805 0.392652 0.919675
vn 0.004570 0.089244 0.995999
vn 0.004570 0.089244 0.995999
vn 0.003887 -0.222904 0.974833
vn 0.003887 -0.222904 0.974833
vn 0.002824 -0.513233 0.858245
vn 0.002824 -0.513233 0.858245
vn 0.001485 -0.753325 0.657647
vn 0.001485 -0.753325 0.657647
vn -0.000000 -0.919686 0.392654
vn 0.000000 -0.919686 0.392655
vn -0.001485 -0.996008 0.089258
vn -0.001485 -0.996008 0.089258
vn -0.002824 -0.974842 -0.222878
vn -0.002824 -0.974842 -0.222878
vn -0.003887 -0.858252 -0.513214
vn -0.003887 -0.858252 -0.513214
vn -0.004570 -0.657632 -0.753326
vn -0.004570 -0.657631 -0.753326
vn -0.004805 -0.392646 -0.919677
vn -0.004805 -0.392645 -0.919677
vn -0.999988 0.001890 0.004416
vn -0.999988 0.001890 0.004417
vn -0.999988 0.001888 0.004419
vn -0.999989 0.001885 0.004415
vn -0.999989 0.001881 0.004415
vn -0.999988 0.001883 0.004415
vn -0.999988 0.001885 0.004421
vn -0.999988 0.001883 0.004422
vn -0.999988 0.001895 0.004421
vn -0.999988 0.001890 0.004420
vn -0.999988 0.001890 0.004419
vn -0.999988 0.001890 0.004421
vn -0.999988 0.001881 0.004420
vn -0.999988 0.001890 0.004419
vn -0.999988 0.001895 0.004422
vn -0.999988 0.001895 0.004425
vn -0.999988 0.001888 0.004415
vn -0.999988 0.001883 0.004416
vn -0.999988 0.001895 0.004420
vn -0.999988 0.001890 0.004417
vn -0.999989 0.001881 0.004419
vn 0.999989 -0.001890 -0.004418
vn 0.999988 -0.001871 -0.004420
vn 0.999988 -0.001887 -0.004419
vn 0.999988 -0.001900 -0.004419
vn 0.999989 -0.001895 -0.004416
vn 0.999988 -0.001885 -0.004415
vn 0.999988 -0.001888 -0.004421
vn 0.999988 -0.001880 -0.004421
vn 0.999988 -0.001888 -0.004416
vn 0.999988 -0.001885 -0.004418
vn 0.999989 -0.001881 -0.004419
vn 0.999988 -0.001881 -0.004418
vn 0.999988 -0.001890 -0.004418
vn 0.999988 -0.001890 -0.004418
vn 0.999988 -0.001881 -0.004422
vn 0.999988 -0.001890 -0.004425
vn 0.999988 -0.001887 -0.004421
vn 0.999989 -0.001882 -0.004416
vn 0.999988 -0.001890 -0.004421
vn 0.999988 -0.001885 -0.004420
vn 0.999988 -0.001900 -0.004417
s 1
g lamp group1
usemtl aiStandardSurface1SG
f 1/21/1 2/22/2 22/43/3 21/42/4
f 2/22/2 3/23/5 23/44/6 22/43/3
f 3/23/5 4/24/7 24/45/8 23/44/6
f 4/24/7 5/25/9 25/46/10 24/45/8
f 5/25/9 6/26/11 26/47/12 25/46/10
f 6/26/11 7/27/13 27/48/14 26/47/12
f 7/27/13 8/28/15 28/49/16 27/48/14
f 8/28/15 9/29/17 29/50/18 28/49/16
f 9/29/17 10/30/19 30/51/20 29/50/18
f 10/30/19 11/31/21 31/52/22 30/51/20
f 11/31/21 12/32/23 32/53/24 31/52/22
f 12/32/23 13/33/25 33/54/26 32/53/24
f 13/33/25 14/34/27 34/55/28 33/54/26
f 14/34/27 15/35/29 35/56/30 34/55/28
f 15/35/29 16/36/31 36/57/32 35/56/30
f 16/36/31 17/37/33 37/58/34 36/57/32
f 17/37/33 18/38/35 38/59/36 37/58/34
f 18/38/35 19/39/37 39/60/38 38/59/36
f 19/39/37 20/40/39 40/61/40 39/60/38
f 20/40/39 1/41/1 21/62/4 40/61/40
s 2
f 2/2/41 1/1/42 41/83/43
f 3/3/44 2/2/41 41/83/43
f 4/4/45 3/3/44 41/83/43
f 5/5/46 4/4/45 41/83/43
f 6/6/47 5/5/46 41/83/43
f 7/7/48 6/6/47 41/83/43
f 8/8/49 7/7/48 41/83/43
f 9/9/50 8/8/49 41/83/43
f 10/10/51 9/9/50 41/83/43
f 11/11/52 10/10/51 41/83/43
f 12/12/53 11/11/52 41/83/43
f 13/13/54 12/12/53 41/83/43
f 14/14/55 13/13/54 41/83/43
f 15/15/56 14/14/55 41/83/43
f 16/16/57 15/15/56 41/83/43
f 17/17/58 16/16/57 41/83/43
f 18/18/59 17/17/58 41/83/43
f 19/19/60 18/18/59 41/83/43
f 20/20/61 19/19/60 41/83/43
f 1/1/42 20/20/61 41/83/43
s 3
f 21/81/62 22/80/63 42/84/64
f 22/80/63 23/79/65 42/84/64
f 23/79/65 24/78/66 42/84/64
f 24/78/66 25/77/67 42/84/64
f 25/77/67 26/76/68 42/84/64
f 26/76/68 27/75/69 42/84/64
f 27/75/69 28/74/70 42/84/64
f 28/74/70 29/73/71 42/84/64
f 29/73/71 30/72/72 42/84/64
f 30/72/72 31/71/73 42/84/64
f 31/71/73 32/70/74 42/84/64
f 32/70/74 33/69/75 42/84/64
f 33/69/75 34/68/76 42/84/64
f 34/68/76 35/67/77 42/84/64
f 35/67/77 36/66/78 42/84/64
f 36/66/78 37/65/79 42/84/64
f 37/65/79 38/64/80 42/84/64
f 38/64/80 39/63/81 42/84/64
f 39/63/81 40/82/82 42/84/64
f 40/82/82 21/81/62 42/84/64
g default
v -2.824404 7.655402 -8.458236
v 2.824404 7.655402 -8.458236
v -2.824404 7.889660 -8.558255
v 2.824404 7.889660 -8.558255
v -2.824404 7.609938 -8.564719
v 2.824404 7.609938 -8.564719
v 2.824404 7.844196 -8.664739
v -2.824404 7.844196 -8.664739
v -2.873102 7.560242 -8.574841
v -2.873102 7.871255 -8.707632
v 2.873102 7.871255 -8.707632
v 2.873102 7.560242 -8.574841
v -2.873102 7.617024 -8.441850
v 2.873102 7.617024 -8.441850
v 2.873102 7.928038 -8.574641
v -2.873102 7.928038 -8.574641
v 2.873102 7.830597 -8.533037
v 2.824404 7.816267 -8.526918
v 2.824404 7.770803 -8.633402
v -2.824404 7.770803 -8.633402
v -2.824404 7.816267 -8.526918
v -2.873102 7.830597 -8.533037
v -2.873102 7.773815 -8.666028
v 2.873102 7.773815 -8.666028
v 2.873102 7.731746 -8.490831
v 2.824404 7.741811 -8.495130
v 2.824404 7.696347 -8.601613
v -2.824404 7.696347 -8.601613
v -2.824404 7.741811 -8.495130
v -2.873102 7.731746 -8.490831
v -2.873102 7.674964 -8.623823
v 2.873102 7.674964 -8.623823
v 2.678311 7.741811 -8.495130
v 2.678311 7.696347 -8.601613
v 2.678311 7.816267 -8.526918
v 2.678311 7.770803 -8.633402
v -2.678311 7.741811 -8.495130
v -2.678311 7.816267 -8.526918
v -2.678311 7.696347 -8.601613
v -2.678311 7.770803 -8.633402
vt 0.375000 0.250000
vt 0.625000 0.250000
vt 0.375000 0.500000
vt 0.625000 0.500000
vt 0.375000 0.250000
vt 0.625000 0.250000
vt 0.625000 0.500000
vt 0.375000 0.500000
vt 0.375000 0.250000
vt 0.375000 0.500000
vt 0.625000 0.500000
vt 0.625000 0.250000
vt 0.375000 0.250000
vt 0.625000 0.250000
vt 0.625000 0.500000
vt 0.375000 0.500000
vt 0.625000 0.250000
vt 0.375000 0.250000
vt 0.625000 0.500000
vt 0.375000 0.500000
vt 0.625000 0.421675
vt 0.625000 0.421675
vt 0.625000 0.421675
vt 0.625000 0.421675
vt 0.375000 0.421675
vt 0.375000 0.421675
vt 0.375000 0.421675
vt 0.375000 0.421675
vt 0.375000 0.421675
vt 0.625000 0.421675
vt 0.625000 0.342216
vt 0.625000 0.342216
vt 0.625000 0.342216
vt 0.625000 0.342216
vt 0.375000 0.342216
vt 0.375000 0.342216
vt 0.375000 0.342216
vt 0.375000 0.342216
vt 0.375000 0.342216
vt 0.625000 0.342216
vt 0.625000 0.342216
vt 0.625000 0.342216
vt 0.625000 0.421675
vt 0.625000 0.421675
vt 0.375000 0.421675
vt 0.375000 0.342216
vt 0.375000 0.342216
vt 0.375000 0.421675
vn 0.000000 -0.392666 -0.919681
vn 0.000000 -0.392665 -0.919682
vn 0.000000 -0.392665 -0.919682
vn 0.000000 -0.392666 -0.919681
vn 0.000000 -0.919681 0.392667
vn 0.000000 -0.919681 0.392667
vn 0.000000 -0.919681 0.392667
vn 0.000000 -0.919681 0.392667
vn 1.000000 -0.000002 0.000000
vn 1.000000 -0.000002 0.000000
vn 1.000000 -0.000002 0.000000
vn 1.000000 -0.000002 0.000000
vn 0.000000 0.919680 -0.392670
vn 0.000000 0.919680 -0.392670
vn 0.000000 0.919680 -0.392670
vn 0.000000 0.919680 -0.392670
vn -1.000000 0.000000 0.000000
vn -1.000000 0.000000 0.000000
vn -1.000000 0.000000 0.000000
vn -1.000000 0.000000 0.000000
vn 0.000000 0.392672 0.919679
vn 0.000000 0.392672 0.919679
vn 0.000000 0.392666 0.919681
vn 0.000000 0.392666 0.919681
vn 0.000000 0.919682 -0.392665
vn 0.000000 0.919682 -0.392665
vn 0.000000 0.919682 -0.392665
vn 0.000000 0.919682 -0.392665
vn -1.000000 0.000003 0.000000
vn -1.000000 0.000003 0.000000
vn -1.000000 0.000003 0.000000
vn -1.000000 0.000003 0.000000
vn 0.000000 -0.919682 0.392665
vn 0.000000 -0.919682 0.392665
vn 0.000000 -0.919682 0.392665
vn 0.000000 -0.919682 0.392665
vn 1.000000 0.000000 0.000000
vn 1.000000 0.000000 0.000000
vn 1.000000 0.000000 0.000000
vn 1.000000 0.000000 0.000000
vn -0.000000 0.392674 0.919678
vn 0.000000 0.392674 0.919678
vn 0.000000 0.392674 0.919678
vn -0.000000 0.392674 0.919678
vn -0.000007 0.392663 0.919683
vn -0.000016 0.392669 0.919680
vn 0.000000 0.392670 0.919679
vn -0.000000 0.392670 0.919679
vn -0.000001 0.392670 0.919679
vn 0.000001 0.392670 0.919679
vn 0.000003 0.392662 0.919683
vn 0.000005 0.392668 0.919680
vn -0.000009 0.392663 0.919683
vn -0.000023 0.392671 0.919679
vn -1.000000 0.000000 0.000000
vn -1.000000 0.000000 0.000000
vn -1.000000 0.000000 0.000000
vn -1.000000 0.000000 0.000000
vn 0.000000 0.392668 0.919680
vn 0.000000 0.392668 0.919680
vn 0.000000 0.392678 0.919676
vn 0.000000 0.392678 0.919676
vn 1.000000 0.000000 0.000000
vn 1.000000 0.000000 0.000000
vn 1.000000 0.000000 0.000000
vn 1.000000 0.000000 0.000000
vn 0.000021 0.392671 0.919679
vn 0.000008 0.392663 0.919683
vn -1.000000 0.000000 0.000000
vn -1.000000 0.000000 0.000000
vn -1.000000 0.000000 0.000000
vn -1.000000 0.000000 0.000000
vn 0.000000 -0.392668 -0.919680
vn 0.000000 -0.392668 -0.919680
vn 0.000000 -0.392673 -0.919678
vn 0.000000 -0.392673 -0.919678
vn 1.000000 0.000000 0.000000
vn 1.000000 0.000000 0.000000
vn 1.000000 0.000002 0.000000
vn 1.000000 0.000002 0.000000
vn -1.000000 -0.000001 0.000000
vn -1.000000 -0.000001 0.000000
vn -1.000000 -0.000001 0.000000
vn -1.000000 -0.000001 0.000000
vn 1.000000 0.000000 0.000000
vn 1.000000 0.000000 0.000000
vn 1.000000 0.000000 0.000000
vn 1.000000 0.000000 0.000000
vn 0.000000 -0.919681 0.392666
vn 0.000000 -0.919681 0.392666
vn 0.000000 -0.919681 0.392666
vn 0.000000 -0.919681 0.392666
vn 0.000000 0.392658 0.919684
vn 0.000000 0.392658 0.919684
vn 0.000000 0.919681 -0.392666
vn 0.000000 0.919681 -0.392666
vn 0.000000 0.919681 -0.392666
vn 0.000000 0.919681 -0.392666
vn 0.000000 -0.392658 -0.919684
vn 0.000000 -0.392658 -0.919684
vn 0.000000 -0.392658 -0.919684
vn 0.000000 -0.392658 -0.919684
vn 0.000000 0.392658 0.919684
vn 0.000000 0.392658 0.919684
vn 0.000000 -0.919681 0.392666
vn 0.000000 -0.919681 0.392666
vn 0.000000 -0.919681 0.392666
vn 0.000000 -0.919681 0.392666
vn 0.000000 -0.392658 -0.919684
vn 0.000000 -0.392658 -0.919684
vn 0.000000 -0.392658 -0.919684
vn 0.000000 -0.392658 -0.919684
vn 0.000000 0.919681 -0.392666
vn 0.000000 0.919681 -0.392666
vn 0.000000 0.919681 -0.392666
vn 0.000000 0.919681 -0.392666
s 1
g group1 part_ho
usemtl initialShadingGroup
f 51/89/83 73/123/84 74/124/85 54/90/86
s off
f 55/102/87 51/89/88 54/90/89 56/101/90
s 2
f 56/101/91 54/90/92 74/124/93 67/115/94
s off
f 57/103/95 53/91/96 52/92/97 58/104/98
s 3
f 72/122/99 73/123/100 51/89/101 55/102/102
s 4
f 47/93/103 48/96/104 69/118/105 70/119/106
s off
f 43/97/107 44/98/108 48/96/109 47/93/110
f 44/98/111 68/116/112 69/118/113 48/96/114
f 46/99/115 45/100/116 50/94/117 49/95/118
f 71/121/119 43/97/120 47/93/121 70/119/122
s 5
f 44/86/123 43/85/124 55/102/125 56/101/126
f 68/117/127 44/86/123 56/101/126 67/115/128
f 45/87/129 46/88/130 57/103/131 58/104/132
f 43/85/124 71/120/133 72/122/134 55/102/125
f 46/88/130 60/107/135 59/105/136 57/103/131
s off
f 61/108/137 60/106/138 46/99/139 49/95/140
s 4
f 62/109/141 61/108/142 49/95/143 50/94/144
s off
f 45/100/145 63/111/146 62/109/147 50/94/148
s 5
f 64/112/149 63/110/150 45/87/129 58/104/132
s 3
f 58/104/151 52/92/152 65/113/153 64/112/154
s 1
f 66/114/155 65/113/156 52/92/157 53/91/158
s 2
f 59/105/159 66/114/160 53/91/161 57/103/162
s 5
f 60/107/135 68/117/127 67/115/128 59/105/136
s off
f 76/125/163 75/126/164 77/127/165 78/128/166
s 4
f 70/119/106 69/118/105 61/108/142 62/109/141
s off
f 80/129/167 79/130/168 81/131/169 82/132/170
s 5
f 72/122/134 71/120/133 63/110/150 64/112/149
s 3
f 64/112/154 65/113/153 73/123/100 72/122/99
s 1
f 74/124/85 73/123/84 65/113/156 66/114/155
s 2
f 67/115/94 74/124/93 66/114/160 59/105/159
s off
f 69/118/171 68/116/172 75/126/173 76/125/174
s 5
f 68/116/127 60/106/135 77/127/175 75/126/176
s off
f 60/106/177 61/108/178 78/128/179 77/127/180
f 61/108/181 69/118/182 76/125/183 78/128/184
s 5
f 63/111/150 71/121/133 79/130/185 80/129/186
s off
f 71/121/187 70/119/188 81/131/189 79/130/190
f 70/119/191 62/109/192 82/132/193 81/131/194
f 62/109/195 63/111/196 80/129/197 82/132/198
